<svg width="13" height="15" viewBox="0 0 13 15" fill="none" xmlns="http://www.w3.org/2000/svg">
<path d="M3.96875 0.75C4.45273 0.75 4.84375 1.14102 4.84375 1.625V2.5H8.34375V1.625C8.34375 1.14102 8.73477 0.75 9.21875 0.75C9.70273 0.75 10.0938 1.14102 10.0938 1.625V2.5H11.4062C12.1309 2.5 12.7188 3.08789 12.7188 3.8125V5.125H0.46875V3.8125C0.46875 3.08789 1.05664 2.5 1.78125 2.5H3.09375V1.625C3.09375 1.14102 3.48477 0.75 3.96875 0.75ZM0.46875 6H12.7188V13.4375C12.7188 14.1621 12.1309 14.75 11.4062 14.75H1.78125C1.05664 14.75 0.46875 14.1621 0.46875 13.4375V6ZM9.46484 9.08984C9.72188 8.83281 9.72188 8.41719 9.46484 8.16289C9.20781 7.90859 8.79219 7.90586 8.53789 8.16289L5.94023 10.7605L4.65508 9.47539C4.39805 9.21836 3.98242 9.21836 3.72812 9.47539C3.47383 9.73242 3.47109 10.148 3.72812 10.4023L5.47813 12.1523C5.73516 12.4094 6.15078 12.4094 6.40508 12.1523L9.46484 9.08984Z" fill="#6B7280"/>
</svg>
