<svg width="17" height="16" viewBox="0 0 17 16" fill="none" xmlns="http://www.w3.org/2000/svg">
<g clip-path="url(#clip0_1_135)">
<path d="M15.9688 8C15.9688 3.71875 12.5 0.25 8.21875 0.25C3.9375 0.25 0.46875 3.71875 0.46875 8C0.46875 11.8681 3.30281 15.0744 7.00781 15.6562V10.2403H5.03906V8H7.00781V6.2925C7.00781 4.35031 8.16406 3.2775 9.935 3.2775C10.7831 3.2775 11.67 3.42875 11.67 3.42875V5.335H10.6925C9.73 5.335 9.42969 5.9325 9.42969 6.54531V8H11.5791L11.2353 10.2403H9.42969V15.6562C13.1347 15.0744 15.9688 11.8681 15.9688 8Z" fill="#2563EB"/>
</g>
<defs>
<clipPath id="clip0_1_135">
<path d="M0.21875 0H16.2188V16H0.21875V0Z" fill="white"/>
</clipPath>
</defs>
</svg>
