<svg width="16" height="16" viewBox="0 0 16 16" fill="none" xmlns="http://www.w3.org/2000/svg">
<g clip-path="url(#clip0_1_130)">
<path d="M15.3281 8.18125C15.3281 12.6031 12.3 15.75 7.82812 15.75C3.54063 15.75 0.078125 12.2875 0.078125 8C0.078125 3.7125 3.54063 0.25 7.82812 0.25C9.91562 0.25 11.6719 1.01562 13.025 2.27813L10.9156 4.30625C8.15625 1.64375 3.025 3.64375 3.025 8C3.025 10.7031 5.18437 12.8938 7.82812 12.8938C10.8969 12.8938 12.0469 10.6938 12.2281 9.55313H7.82812V6.8875H15.2063C15.2781 7.28437 15.3281 7.66562 15.3281 8.18125Z" fill="#EF4444"/>
</g>
<defs>
<clipPath id="clip0_1_130">
<path d="M0.078125 0H15.3281V16H0.078125V0Z" fill="white"/>
</clipPath>
</defs>
</svg>
