<svg width="12" height="15" viewBox="0 0 12 15" fill="none" xmlns="http://www.w3.org/2000/svg">
<path d="M5.90625 0.75C4.76328 0.75 3.78984 1.48008 3.43164 2.5H2.40625C1.44102 2.5 0.65625 3.28477 0.65625 4.25V13C0.65625 13.9652 1.44102 14.75 2.40625 14.75H9.40625C10.3715 14.75 11.1562 13.9652 11.1562 13V4.25C11.1562 3.28477 10.3715 2.5 9.40625 2.5H8.38086C8.02266 1.48008 7.04922 0.75 5.90625 0.75ZM5.90625 2.5C6.13831 2.5 6.36087 2.59219 6.52497 2.75628C6.68906 2.92038 6.78125 3.14294 6.78125 3.375C6.78125 3.60706 6.68906 3.82962 6.52497 3.99372C6.36087 4.15781 6.13831 4.25 5.90625 4.25C5.67419 4.25 5.45163 4.15781 5.28753 3.99372C5.12344 3.82962 5.03125 3.60706 5.03125 3.375C5.03125 3.14294 5.12344 2.92038 5.28753 2.75628C5.45163 2.59219 5.67419 2.5 5.90625 2.5ZM2.625 8.1875C2.625 8.01345 2.69414 7.84653 2.81721 7.72346C2.94028 7.60039 3.1072 7.53125 3.28125 7.53125C3.4553 7.53125 3.62222 7.60039 3.74529 7.72346C3.86836 7.84653 3.9375 8.01345 3.9375 8.1875C3.9375 8.36155 3.86836 8.52847 3.74529 8.65154C3.62222 8.77461 3.4553 8.84375 3.28125 8.84375C3.1072 8.84375 2.94028 8.77461 2.81721 8.65154C2.69414 8.52847 2.625 8.36155 2.625 8.1875ZM5.46875 7.75H8.96875C9.20938 7.75 9.40625 7.94688 9.40625 8.1875C9.40625 8.42812 9.20938 8.625 8.96875 8.625H5.46875C5.22813 8.625 5.03125 8.42812 5.03125 8.1875C5.03125 7.94688 5.22813 7.75 5.46875 7.75ZM2.625 10.8125C2.625 10.6385 2.69414 10.4715 2.81721 10.3485C2.94028 10.2254 3.1072 10.1562 3.28125 10.1562C3.4553 10.1562 3.62222 10.2254 3.74529 10.3485C3.86836 10.4715 3.9375 10.6385 3.9375 10.8125C3.9375 10.9865 3.86836 11.1535 3.74529 11.2765C3.62222 11.3996 3.4553 11.4688 3.28125 11.4688C3.1072 11.4688 2.94028 11.3996 2.81721 11.2765C2.69414 11.1535 2.625 10.9865 2.625 10.8125ZM5.03125 10.8125C5.03125 10.5719 5.22813 10.375 5.46875 10.375H8.96875C9.20938 10.375 9.40625 10.5719 9.40625 10.8125C9.40625 11.0531 9.20938 11.25 8.96875 11.25H5.46875C5.22813 11.25 5.03125 11.0531 5.03125 10.8125Z" fill="#4338CA"/>
</svg>
