<?xml version="1.0" encoding="UTF-8" standalone="no"?>
<svg xmlns="http://www.w3.org/2000/svg" width="174.65111mm" height="174.65111mm" viewBox="0 0 618.84251 618.84251">
  <g transform="translate(-53.858578 -44.759121)">
    <path fill="#fff" fill-rule="evenodd" d="m546.4493 200.31439-91.70277-61.99274c-28.1914-.19012-85.14906 17.99282-85.15108 48.02214l-.0341 477.62664 261.26978-2.11968c-9.67235-92.4144-21.06406-155.20831-30.10314-236.83561-10.02066-90.49152-1.24405-179.09339-54.27869-224.70075Z" color="#000" overflow="visible" style="isolation:auto;mix-blend-mode:normal;solid-color:#000;solid-opacity:1;marker:none"/>
    <path fill="#fff" fill-rule="evenodd" d="m205.49165 204.00061 81.72874-68.64209c28.1914-.19012 85.14906 17.99282 85.15108 48.02214l.0341 480.56527-276.230818-.0713c9.672348-92.4144 27.713408-158.53298 36.752488-240.16028 10.02066-90.49152 19.52977-174.10638 72.56441-219.71374Z" color="#000" overflow="visible" style="isolation:auto;mix-blend-mode:normal;solid-color:#000;solid-opacity:1;marker:none"/>
    <path fill="gray" fill-rule="evenodd" d="M671.99774 122.49027c-69.10522-23.090571-114.62089-10.27338-180.93499-11.0351-35.25635 2.40637-48.00727-37.175314-51.2966-66.199548 0-.359928-58.44338.3492-62.5111-.865072l.0215 125.31385c13.3132 6.6754 47.46357-38.01467 79.24168-29.44836 174.48702 47.0358 143.84642 422.94803 173.34367 523.3526l21.91278.16425c10.8699-107.37181-77.71531-382.88341 23.74941-402.57949Zm-616.963715 3.93062c69.105215-23.09057 132.252635-16.15063 198.566735-16.91235 35.25635 2.40637 45.5545-36.326668 51.00273-65.024094 8.76809-1.434308 58.73724 1.091637 62.80497-.571212L367.387 167.75777c-13.31325 6.6754-63.67196-31.8049-92.17168-15.34296-159.47143 92.11352-160.86808 416.89562-180.984088 511.04603l-17.694803.0634c-4.992644-99.14366 81.137751-384.58139-20.326954-404.27747Z" color="#000" overflow="visible" style="isolation:auto;mix-blend-mode:normal;solid-color:#000;solid-opacity:1;marker:none"/>
    <path fill="none" stroke="#000" stroke-width="18.01708031" d="M98.567402 663.71879c6.412998-76.38371 11.672818-129.28649 33.590368-215.68113 0 0 20.30891-152.48648 35.73955-184.8735 15.43064-32.38702 63.6798-99.48738 120.51709-127.41281 23.47485-.56121 52.92067 6.36265 71.4791 35.80884l-12.46729-86.607409-1.5614-39.849771" color="#000" overflow="visible" style="isolation:auto;mix-blend-mode:normal;solid-color:#000;solid-opacity:1"/>
    <path fill="none" stroke="#000" stroke-linecap="round" stroke-width="18" d="M366.54545 189.49082c-38.78788-.74082-98.35497-14.22886-137.14285-28.25974-27.5974-13.52812-53.5037-30.68005-79.79221-31.58441-29.7743-1.02428-50.424243 6.88664-79.792209 22.44155" color="#000" overflow="visible" style="isolation:auto;mix-blend-mode:normal;solid-color:#000;solid-opacity:1"/>
    <path fill-rule="evenodd" stroke="#000" stroke-width="1.00284994" d="M109.71574 622.27455c10.88865-26.34857 26.76286-60.51887 53.45524-77.79978 58.69002-37.99651 91.89492-24.3372 151.01112-23.34629 27.13874 9.89188 52.19304 24.7073 84.69441 24.7351 39.52366.0338 85.20641.67146 124.75893 9.53754 56.07169 12.65825 75.96793 39.84898 93.09037 80.24812l4.18842 27.65434-516.04287.0743c-3.22375-21.73386-.78456-19.36951 4.84438-41.10338z"/>
    <path fill="gray" fill-rule="evenodd" d="M298.38989 520.29731c-8.9338-28.69985-5.75898-58.6928 3.32465-86.09956l23.27259-70.21711 4.98699-76.90445c17.83497-33.15853 49.19728-43.09602 81.45408-36.78039 11.199 14.78579 14.2865 30.66377 5.8182 47.64733-4.539 12.53877-10.3012 25.07753-4.1559 37.6163 17.8079 52.28849 37.6042 87.5793 59.8438 101.982 42.434 45.54031 54.0464 78.53466 46.5452 93.62281l-11.6363 23.40571c-27.9578 6.8825-164.46146 3.58931-209.45331-34.27264z" color="#000" overflow="visible" style="isolation:auto;mix-blend-mode:normal;solid-color:#000;solid-opacity:1;marker:none"/>
    <path fill="none" stroke="#000" stroke-width="18" d="M112.75984 541.65801c46.65078-66.35799 175.83133-78.94109 241.17547-55.3707M130.3467 454.28766c48.89514-55.27908 151.7746-73.771 221.47153-40.65385m-206.19068-34.57493c53.20152-48.52171 148.74589-57.09985 208.05469-39.96532m-196.30019-23.50901c73.50058-53.91447 126.33082-56.47031 209.23014-35.26351" color="#000" overflow="visible" style="isolation:auto;mix-blend-mode:normal;solid-color:#000;solid-opacity:1"/>
    <path fill="none" stroke="#000" stroke-width="17.75216675" d="M176.33607 255.37049c66.10783-54.40057 112.12685-56.49111 186.68807-35.0931" color="#000" overflow="visible" style="isolation:auto;mix-blend-mode:normal;solid-color:#000;solid-opacity:1"/>
    <path fill="none" stroke="#000" stroke-width="18.00854492" d="M626.51533 663.9517c-6.41304-76.3106-2.82149-120.61323-20.03752-211.63149l-33.95945-193.01616c-14.3069-81.31648-81.99978-103.48063-110.54436-118.97118-28.54458-15.49055-52.92117 6.35656-71.47979 35.77456l12.46738-86.524492 3.32467-44.225189" color="#000" overflow="visible" style="isolation:auto;mix-blend-mode:normal;solid-color:#000;solid-opacity:1"/>
    <path fill="none" stroke="#000" stroke-width="17.65434265" d="M570.59999 253.45905c-65.30628-54.46301-112.24668-57.04485-185.90387-35.62229" color="#000" overflow="visible" style="isolation:auto;mix-blend-mode:normal;solid-color:#000;solid-opacity:1"/>
    <path fill="none" stroke="#000" stroke-linecap="round" stroke-width="18" d="M364.67169 186.90713c38.78788-.74082 98.35497-14.22886 137.14285-28.25974 27.5974-13.52812 53.5037-30.68005 79.79221-31.58441 29.7743-1.02428 50.42424 6.88664 79.79221 22.44155" color="#000" overflow="visible" style="isolation:auto;mix-blend-mode:normal;solid-color:#000;solid-opacity:1"/>
    <path fill="none" stroke="#000" stroke-width="18" d="M585.04924 319.53286c-73.50058-53.91447-118.01913-54.80797-200.91845-33.60117M593.7511 390.07005c-53.20152-48.52171-142.86864-57.09985-202.17744-39.96532M609.31864 464.881c-48.89514-55.27908-150.11226-75.43334-219.80919-42.31619m230.00541 127.24171c-46.65078-66.35799-163.89138-84.24572-229.23552-60.67533" color="#000" overflow="visible" style="isolation:auto;mix-blend-mode:normal;solid-color:#000;solid-opacity:1"/>
    <path fill-rule="evenodd" stroke="#000" stroke-width="15" d="m153.1542 308.08459-35.74026-86.44156c11.80393-10.65196 13.85949-39.41686 5.35528-57.24286 21.17835-12.54705 88.89569-8.64267 110.17718-27.53636-103.12392 32.14426-103.0729 92.48871-79.7922 171.22078z" color="#000" overflow="visible" style="isolation:auto;mix-blend-mode:normal;solid-color:#000;solid-opacity:1"/>
    <path fill-rule="evenodd" stroke="#000" stroke-width="22.25942039" d="M359.52026 56.349846h26.828638v588.71631H359.52026z" color="#000" overflow="visible" style="isolation:auto;mix-blend-mode:normal;solid-color:#000;solid-opacity:1;marker:none"/>
    <circle cx="89.793663" cy="188.0482" r="14.693128" fill-rule="evenodd" stroke="#000" stroke-width="15" color="#000" overflow="visible" style="isolation:auto;mix-blend-mode:normal;solid-color:#000;solid-opacity:1;marker:none"/>
    <path fill-rule="evenodd" stroke="#000" stroke-width="15" d="M53.942432 178.05687H88.03049v21.158104H53.942432z" color="#000" overflow="visible" style="isolation:auto;mix-blend-mode:normal;solid-color:#000;solid-opacity:1;marker:none"/>
    <path fill="none" stroke="#000" stroke-linecap="round" stroke-width="15" d="M319.59418 84.020857h108.14143" color="#000" overflow="visible" style="isolation:auto;mix-blend-mode:normal;solid-color:#000;solid-opacity:1"/>
    <circle cx="-649.75262" cy="186.99269" r="14.693128" fill-rule="evenodd" stroke="#000" stroke-width="15" color="#000" overflow="visible" style="isolation:auto;mix-blend-mode:normal;solid-color:#000;solid-opacity:1;marker:none" transform="scale(-1 1)"/>
    <path fill-rule="evenodd" stroke="#000" stroke-width="15" d="M-685.60382 177.00136h34.088058v21.158104h-34.088058z" color="#000" overflow="visible" style="isolation:auto;mix-blend-mode:normal;solid-color:#000;solid-opacity:1;marker:none" transform="scale(-1 1)"/>
    <path fill-rule="evenodd" stroke="#000" stroke-width="15" d="m584.04339 302.3373 35.74026-86.44156c-11.80393-10.65196-13.85949-39.41686-5.35528-57.24286-21.17835-12.54705-88.8957-8.64267-110.17719-27.53636 103.12393 32.14426 103.07291 92.48871 79.79221 171.22078z" color="#000" overflow="visible" style="isolation:auto;mix-blend-mode:normal;solid-color:#000;solid-opacity:1"/>
  </g>
</svg>